# xmcd CD database file
#
# Track frame offsets:
#	150
#	13771
#	34374
#	56786
#	86398
#	99876
#	114855
#	129790
#	144204
#	166445
#	181437
#	196437
#	210791
#	224512
#	237880
#	253866
#	268459
#	282527
#	296305
#	318869
#
# Disc length: 4456 seconds
#
# Revision: 1
# Processed by: cddbd v1.5.2PL0 Copyright (c) Steve Scherf et al.
# Submitted via: CDex 1.70beta2
#
DISCID=22116614
DTITLE=Louis Armstrong - Blue Collection CD 1
DYEAR=2007
DGENRE=Jazz
TTITLE0=St. Louis Blues
TTITLE1=Atlanta Blues
TTITLE2=Aunt Hagar’s Blues
TTITLE3=April In Paris (With Ella Fitzgerald)
TTITLE4=Honeysuckle Rose
TTITLE5=St. James Infirmary
TTITLE6=Keepin’ Out Of Mischief Now 
TTITLE7=Blue Again
TTITLE8=Blue Turning Grey Over You
TTITLE9=Chinatown, My Chinatown
TTITLE10=Squeeze Me (With Earl Hines)
TTITLE11=Cold, Cold Heart
TTITLE12=Cornet Chop Sue
TTITLE13=Hotter Than That
TTITLE14=Keyhole Blues
TTITLE15=Once In A While
TTITLE16=Ory’s Creole Trombone
TTITLE17=Skip The Gutter (With Earl Hines)
TTITLE18=Skokiaan
TTITLE19=Ole Miss Blues
EXTD=YEAR: 2007
EXTT0=
EXTT1=
EXTT2=
EXTT3=
EXTT4=
EXTT5=
EXTT6=
EXTT7=
EXTT8=
EXTT9=
EXTT10=
EXTT11=
EXTT12=
EXTT13=
EXTT14=
EXTT15=
EXTT16=
EXTT17=
EXTT18=
EXTT19=
PLAYORDER=
